<?xml version="1.0" encoding="utf-8"?>
<!-- Generator: Adobe Illustrator 24.1.3, SVG Export Plug-In . SVG Version: 6.00 Build 0)  -->
<svg version="1.1" id="Layer_1" xmlns="http://www.w3.org/2000/svg" xmlns:xlink="http://www.w3.org/1999/xlink" x="0px" y="0px"
	 viewBox="0 0 1199.8 501" style="enable-background:new 0 0 1199.8 501;" xml:space="preserve">
<style type="text/css">
	.st0{fill:url(#SVGID_1_);}
	.st1{opacity:0.8;filter:url(#blurDos);}
	.st2{fill:#FFFFE8;}
	.st3{fill:#FFFFFF;stroke:#000000;stroke-miterlimit:10;}
	.st4{fill:#FFFFFF;}
	.st5{fill:none;stroke:#000000;stroke-miterlimit:10;}
</style>
<filter  id="blurDos">
	<feGaussianBlur  stdDeviation="10"></feGaussianBlur>
</filter>
<radialGradient id="SVGID_1_" cx="1092.6" cy="18.1" r="69.4" gradientTransform="matrix(-1 0 0 1 2161 294)" gradientUnits="userSpaceOnUse">
	<stop  offset="6.830000e-02" style="stop-color:#CCCCBA"/>
	<stop  offset="1" style="stop-color:#FFFFDC"/>
</radialGradient>
<circle class="st0" cx="1068.4" cy="312.1" r="69.4"/>
<g class="st1">
	<circle class="st2" cx="1068.4" cy="312.1" r="84.6"/>
</g>
<circle class="st3" cx="333.8" cy="178.3" r="2.6"/>
<circle class="st3" cx="33.7" cy="120.5" r="1.3"/>
<circle class="st3" cx="184.9" cy="106.6" r="2.6"/>
<circle class="st3" cx="236.9" cy="201.1" r="2.6"/>
<circle class="st3" cx="566.8" cy="169.2" r="1.3"/>
<circle class="st3" cx="405.9" cy="215.2" r="1.3"/>
<circle class="st3" cx="695.9" cy="175.2" r="1.3"/>
<circle class="st3" cx="649" cy="133" r="2.6"/>
<circle class="st3" cx="896.5" cy="198.5" r="1.3"/>
<circle class="st3" cx="827.3" cy="148.6" r="2.6"/>
<circle class="st3" cx="744.2" cy="103.9" r="2.6"/>
<circle class="st3" cx="440.8" cy="151.3" r="1.3"/>
<circle class="st3" cx="425" cy="99.5" r="1.3"/>
<circle class="st3" cx="296.8" cy="121.8" r="1.3"/>
<g>
	<circle class="st4" cx="488.7" cy="144.7" r="2.6"/>
	<circle class="st5" cx="488.7" cy="144.7" r="2.6"/>
</g>
<circle class="st3" cx="770" cy="264.5" r="1.3"/>
<circle class="st3" cx="629.1" cy="204.3" r="2.6"/>
<circle class="st3" cx="532.6" cy="112.8" r="2.6"/>
<g>
	<circle class="st4" cx="138.9" cy="146" r="1.3"/>
	<circle class="st5" cx="138.9" cy="146" r="1.3"/>
</g>
<g>
	<circle class="st4" cx="397.6" cy="170.5" r="1.3"/>
	<circle class="st5" cx="397.6" cy="170.5" r="1.3"/>
</g>
<circle class="st3" cx="107.7" cy="211.1" r="1.3"/>
<circle class="st3" cx="56.8" cy="244.3" r="2.6"/>
<circle class="st3" cx="11.3" cy="205.6" r="1.3"/>
<circle class="st3" cx="136.3" cy="227.9" r="2.6"/>
<circle class="st3" cx="59.5" cy="282.5" r="2.6"/>
<circle class="st3" cx="378.7" cy="275.2" r="1.3"/>
<circle class="st3" cx="229" cy="285.2" r="1.3"/>
<circle class="st3" cx="515.7" cy="225.9" r="1.3"/>
<g>
	<circle class="st4" cx="912.8" cy="108.8" r="2.6"/>
	<circle class="st5" cx="912.8" cy="108.8" r="2.6"/>
</g>
<g>
	<circle class="st4" cx="865.3" cy="114.1" r="1.3"/>
	<circle class="st5" cx="865.3" cy="114.1" r="1.3"/>
</g>
<g>
	<circle class="st4" cx="714" cy="126.5" r="2.6"/>
	<circle class="st5" cx="714" cy="126.5" r="2.6"/>
</g>
<g>
	<circle class="st4" cx="619" cy="262.9" r="2.6"/>
	<circle class="st5" cx="619" cy="262.9" r="2.6"/>
</g>
<g>
	<circle class="st4" cx="300.2" cy="245.6" r="1.3"/>
	<circle class="st5" cx="300.2" cy="245.6" r="1.3"/>
</g>
<g>
	<circle class="st4" cx="450.2" cy="247.1" r="1.3"/>
	<circle class="st5" cx="450.2" cy="247.1" r="1.3"/>
</g>
<g>
	<circle class="st4" cx="159.8" cy="284.2" r="1.3"/>
	<circle class="st5" cx="159.8" cy="284.2" r="1.3"/>
</g>
<g>
	<circle class="st4" cx="140.3" cy="273.9" r="2.6"/>
	<circle class="st5" cx="140.3" cy="273.9" r="2.6"/>
</g>
<g>
	<circle class="st4" cx="-96.6" cy="285.5" r="1.3"/>
	<circle class="st5" cx="-96.6" cy="285.5" r="1.3"/>
</g>
<g>
	<circle class="st4" cx="28.2" cy="309.4" r="2.6"/>
	<circle class="st5" cx="28.2" cy="309.4" r="2.6"/>
</g>
<g>
	<circle class="st4" cx="154.7" cy="123.5" r="2.6"/>
	<circle class="st5" cx="154.7" cy="123.5" r="2.6"/>
</g>
<g>
	<circle class="st4" cx="473.9" cy="120" r="1.3"/>
	<circle class="st5" cx="473.9" cy="120" r="1.3"/>
</g>
<g>
	<circle class="st4" cx="324.2" cy="128.2" r="1.3"/>
	<circle class="st5" cx="324.2" cy="128.2" r="1.3"/>
</g>
<g>
	<circle class="st4" cx="602.2" cy="110.1" r="1.3"/>
	<circle class="st5" cx="602.2" cy="110.1" r="1.3"/>
</g>
<image style="overflow:visible;enable-background:new    ;" width="9" height="9" xlink:href="2AEE0BCFC9B075D0.png"  transform="matrix(0.8889 0 0 0.8889 362.9605 312.9984)">
</image>
<g>
	<circle class="st4" cx="86.6" cy="194.2" r="1.3"/>
	<circle class="st5" cx="86.6" cy="194.2" r="1.3"/>
</g>
<g>
	<circle class="st4" cx="209.6" cy="225.8" r="2.6"/>
	<circle class="st5" cx="209.6" cy="225.8" r="2.6"/>
</g>
<g>
	<circle class="st4" cx="289.2" cy="276.4" r="2.6"/>
	<circle class="st5" cx="289.2" cy="276.4" r="2.6"/>
</g>
<image style="overflow:visible;enable-background:new    ;" width="5" height="5" xlink:href="2AEE0BCFC9B075D1.png"  transform="matrix(0.8 0 0 0.8 714.2585 316.8006)">
</image>
<image style="overflow:visible;enable-background:new    ;" width="5" height="5" xlink:href="2AEE0BCFC9B075D3.png"  transform="matrix(0.8 0 0 0.8 455.8803 289.66)">
</image>
<g>
	<circle class="st4" cx="748.4" cy="254.2" r="1.3"/>
	<circle class="st5" cx="748.4" cy="254.2" r="1.3"/>
</g>
<g>
	<circle class="st4" cx="701.8" cy="211.6" r="2.6"/>
	<circle class="st5" cx="701.8" cy="211.6" r="2.6"/>
</g>
<g>
	<circle class="st4" cx="844.7" cy="260.7" r="1.3"/>
	<circle class="st5" cx="844.7" cy="260.7" r="1.3"/>
</g>
<g>
	<circle class="st4" cx="719.9" cy="237.1" r="2.6"/>
	<circle class="st5" cx="719.9" cy="237.1" r="2.6"/>
</g>
<g>
	<circle class="st4" cx="797.3" cy="183.3" r="2.6"/>
	<circle class="st5" cx="797.3" cy="183.3" r="2.6"/>
</g>
<g>
	<circle class="st4" cx="478" cy="187.4" r="1.3"/>
	<circle class="st5" cx="478" cy="187.4" r="1.3"/>
</g>
<g>
	<circle class="st4" cx="627.8" cy="178.9" r="1.3"/>
	<circle class="st5" cx="627.8" cy="178.9" r="1.3"/>
</g>
<g>
	<circle class="st4" cx="340.5" cy="235.3" r="1.3"/>
	<circle class="st5" cx="340.5" cy="235.3" r="1.3"/>
</g>
<circle class="st3" cx="915.4" cy="237.1" r="1.3"/>
<circle class="st3" cx="933.4" cy="171.9" r="1.3"/>
<circle class="st3" cx="695.9" cy="235.2" r="1.3"/>
<circle class="st3" cx="675.9" cy="95.2" r="1.3"/>
<circle class="st3" cx="865.9" cy="105.2" r="1.3"/>
<circle class="st3" cx="855.9" cy="105.2" r="1.3"/>
<circle class="st3" cx="860.9" cy="125.2" r="1.3"/>
<circle class="st3" cx="845.9" cy="136.2" r="1.3"/>
<circle class="st3" cx="575.9" cy="345.2" r="2.6"/>
<circle class="st3" cx="849.8" cy="218.5" r="2.6"/>
<circle class="st3" cx="10" cy="331.4" r="2.6"/>
<circle class="st3" cx="961.8" cy="233.7" r="1.3"/>
<g>
	<circle class="st4" cx="803.9" cy="257.9" r="1.3"/>
	<circle class="st5" cx="803.9" cy="257.9" r="1.3"/>
</g>
<g>
	<circle class="st4" cx="819.6" cy="235.4" r="2.6"/>
	<circle class="st5" cx="819.6" cy="235.4" r="2.6"/>
</g>
<g>
	<circle class="st4" cx="1167.9" cy="241.3" r="1.3"/>
	<circle class="st5" cx="1167.9" cy="241.3" r="1.3"/>
</g>
<circle class="st3" cx="465.8" cy="102.5" r="2.6"/>
<circle class="st3" cx="698.8" cy="93.4" r="1.3"/>
<circle class="st3" cx="827.9" cy="99.4" r="1.3"/>
<circle class="st3" cx="781" cy="57.2" r="2.6"/>
<circle class="st3" cx="959.3" cy="72.8" r="2.6"/>
<circle class="st3" cx="876.2" cy="28.1" r="2.6"/>
<circle class="st3" cx="572.8" cy="75.5" r="1.3"/>
<circle class="st3" cx="557" cy="23.7" r="1.3"/>
<circle class="st3" cx="428.8" cy="46" r="1.3"/>
<g>
	<circle class="st4" cx="620.7" cy="68.9" r="2.6"/>
	<circle class="st5" cx="620.7" cy="68.9" r="2.6"/>
</g>
<circle class="st3" cx="664.6" cy="37" r="2.6"/>
<g>
	<circle class="st4" cx="529.6" cy="94.7" r="1.3"/>
	<circle class="st5" cx="529.6" cy="94.7" r="1.3"/>
</g>
<g>
	<circle class="st4" cx="1044.8" cy="33" r="2.6"/>
	<circle class="st5" cx="1044.8" cy="33" r="2.6"/>
</g>
<g>
	<circle class="st4" cx="997.3" cy="38.3" r="1.3"/>
	<circle class="st5" cx="997.3" cy="38.3" r="1.3"/>
</g>
<g>
	<circle class="st4" cx="846" cy="50.7" r="2.6"/>
	<circle class="st5" cx="846" cy="50.7" r="2.6"/>
</g>
<g>
	<circle class="st4" cx="605.9" cy="44.2" r="1.3"/>
	<circle class="st5" cx="605.9" cy="44.2" r="1.3"/>
</g>
<g>
	<circle class="st4" cx="456.2" cy="52.4" r="1.3"/>
	<circle class="st5" cx="456.2" cy="52.4" r="1.3"/>
</g>
<g>
	<circle class="st4" cx="734.2" cy="34.3" r="1.3"/>
	<circle class="st5" cx="734.2" cy="34.3" r="1.3"/>
</g>
<g>
	<circle class="st4" cx="929.3" cy="107.5" r="2.6"/>
	<circle class="st5" cx="929.3" cy="107.5" r="2.6"/>
</g>
<g>
	<circle class="st4" cx="759.8" cy="103.1" r="1.3"/>
	<circle class="st5" cx="759.8" cy="103.1" r="1.3"/>
</g>
<circle class="st3" cx="807.9" cy="19.4" r="1.3"/>
<circle class="st3" cx="997.9" cy="29.4" r="1.3"/>
<circle class="st3" cx="987.9" cy="29.4" r="1.3"/>
<circle class="st3" cx="992.9" cy="49.4" r="1.3"/>
<circle class="st3" cx="977.9" cy="60.4" r="1.3"/>
<circle class="st3" cx="-85.3" cy="115.2" r="2.6"/>
<circle class="st3" cx="147.7" cy="106.1" r="1.3"/>
<circle class="st3" cx="276.8" cy="112.1" r="1.3"/>
<circle class="st3" cx="229.9" cy="69.9" r="2.6"/>
<circle class="st3" cx="408.2" cy="85.5" r="2.6"/>
<circle class="st3" cx="325.1" cy="40.8" r="2.6"/>
<circle class="st3" cx="21.7" cy="88.2" r="1.3"/>
<circle class="st3" cx="5.9" cy="36.4" r="1.3"/>
<circle class="st3" cx="-122.3" cy="58.7" r="1.3"/>
<g>
	<circle class="st4" cx="69.6" cy="81.6" r="2.6"/>
	<circle class="st5" cx="69.6" cy="81.6" r="2.6"/>
</g>
<circle class="st3" cx="113.5" cy="49.7" r="2.6"/>
<g>
	<circle class="st4" cx="-21.5" cy="107.4" r="1.3"/>
	<circle class="st5" cx="-21.5" cy="107.4" r="1.3"/>
</g>
<g>
	<circle class="st4" cx="493.7" cy="45.7" r="2.6"/>
	<circle class="st5" cx="493.7" cy="45.7" r="2.6"/>
</g>
<g>
	<circle class="st4" cx="446.2" cy="51" r="1.3"/>
	<circle class="st5" cx="446.2" cy="51" r="1.3"/>
</g>
<g>
	<circle class="st4" cx="294.9" cy="63.4" r="2.6"/>
	<circle class="st5" cx="294.9" cy="63.4" r="2.6"/>
</g>
<g>
	<circle class="st4" cx="54.8" cy="56.9" r="1.3"/>
	<circle class="st5" cx="54.8" cy="56.9" r="1.3"/>
</g>
<g>
	<circle class="st4" cx="-94.9" cy="65.1" r="1.3"/>
	<circle class="st5" cx="-94.9" cy="65.1" r="1.3"/>
</g>
<g>
	<circle class="st4" cx="183.1" cy="47" r="1.3"/>
	<circle class="st5" cx="183.1" cy="47" r="1.3"/>
</g>
<g>
	<circle class="st4" cx="378.2" cy="120.2" r="2.6"/>
	<circle class="st5" cx="378.2" cy="120.2" r="2.6"/>
</g>
<g>
	<circle class="st4" cx="208.7" cy="115.8" r="1.3"/>
	<circle class="st5" cx="208.7" cy="115.8" r="1.3"/>
</g>
<circle class="st3" cx="514.3" cy="108.8" r="1.3"/>
<circle class="st3" cx="256.8" cy="32.1" r="1.3"/>
<circle class="st3" cx="446.8" cy="42.1" r="1.3"/>
<circle class="st3" cx="436.8" cy="42.1" r="1.3"/>
<circle class="st3" cx="441.8" cy="62.1" r="1.3"/>
<circle class="st3" cx="426.8" cy="73.1" r="1.3"/>
<circle class="st3" cx="628.8" cy="333.7" r="2.6"/>
<circle class="st3" cx="328.7" cy="275.9" r="1.3"/>
<circle class="st3" cx="479.9" cy="262" r="2.6"/>
<circle class="st3" cx="531.9" cy="356.5" r="2.6"/>
<circle class="st3" cx="861.8" cy="324.6" r="1.3"/>
<circle class="st3" cx="700.9" cy="370.6" r="1.3"/>
<circle class="st3" cx="1166.1" cy="150.9" r="1.3"/>
<circle class="st3" cx="944" cy="288.4" r="2.6"/>
<circle class="st3" cx="1034.7" cy="177.5" r="2.6"/>
<circle class="st3" cx="1117.8" cy="222.2" r="2.6"/>
<circle class="st3" cx="735.8" cy="306.7" r="1.3"/>
<circle class="st3" cx="720" cy="254.9" r="1.3"/>
<circle class="st3" cx="591.8" cy="277.2" r="1.3"/>
<g>
	<circle class="st4" cx="783.7" cy="300.1" r="2.6"/>
	<circle class="st5" cx="783.7" cy="300.1" r="2.6"/>
</g>
<circle class="st3" cx="1092" cy="61.6" r="1.3"/>
<circle class="st3" cx="924.1" cy="359.7" r="2.6"/>
<circle class="st3" cx="827.6" cy="268.2" r="2.6"/>
<g>
	<circle class="st4" cx="433.9" cy="301.4" r="1.3"/>
	<circle class="st5" cx="433.9" cy="301.4" r="1.3"/>
</g>
<g>
	<circle class="st4" cx="692.6" cy="325.9" r="1.3"/>
	<circle class="st5" cx="692.6" cy="325.9" r="1.3"/>
</g>
<circle class="st3" cx="402.7" cy="366.5" r="1.3"/>
<circle class="st3" cx="351.8" cy="399.7" r="2.6"/>
<circle class="st3" cx="431.3" cy="383.3" r="2.6"/>
<circle class="st3" cx="354.5" cy="437.9" r="2.6"/>
<circle class="st3" cx="673.7" cy="430.6" r="1.3"/>
<circle class="st3" cx="524" cy="440.6" r="1.3"/>
<circle class="st3" cx="810.7" cy="381.3" r="1.3"/>
<g>
	<circle class="st4" cx="996.7" cy="212" r="1.3"/>
	<circle class="st5" cx="996.7" cy="212" r="1.3"/>
</g>
<g>
	<circle class="st4" cx="1148" cy="199.6" r="2.6"/>
	<circle class="st5" cx="1148" cy="199.6" r="2.6"/>
</g>
<g>
	<circle class="st4" cx="914" cy="418.3" r="2.6"/>
	<circle class="st5" cx="914" cy="418.3" r="2.6"/>
</g>
<g>
	<circle class="st4" cx="595.2" cy="401" r="1.3"/>
	<circle class="st5" cx="595.2" cy="401" r="1.3"/>
</g>
<g>
	<circle class="st4" cx="745.2" cy="402.5" r="1.3"/>
	<circle class="st5" cx="745.2" cy="402.5" r="1.3"/>
</g>
<g>
	<circle class="st4" cx="454.8" cy="439.6" r="1.3"/>
	<circle class="st5" cx="454.8" cy="439.6" r="1.3"/>
</g>
<g>
	<circle class="st4" cx="435.3" cy="429.3" r="2.6"/>
	<circle class="st5" cx="435.3" cy="429.3" r="2.6"/>
</g>
<g>
	<circle class="st4" cx="449.7" cy="278.9" r="2.6"/>
	<circle class="st5" cx="449.7" cy="278.9" r="2.6"/>
</g>
<g>
	<circle class="st4" cx="768.9" cy="275.4" r="1.3"/>
	<circle class="st5" cx="768.9" cy="275.4" r="1.3"/>
</g>
<g>
	<circle class="st4" cx="619.2" cy="283.6" r="1.3"/>
	<circle class="st5" cx="619.2" cy="283.6" r="1.3"/>
</g>
<g>
	<circle class="st4" cx="897.2" cy="265.5" r="1.3"/>
	<circle class="st5" cx="897.2" cy="265.5" r="1.3"/>
</g>
<image style="overflow:visible;enable-background:new    ;" width="9" height="9" xlink:href="2AEE0BCFC9B075D0.png"  transform="matrix(0.8889 0 0 0.8889 657.9605 468.3984)">
</image>
<g>
	<circle class="st4" cx="381.6" cy="349.6" r="1.3"/>
	<circle class="st5" cx="381.6" cy="349.6" r="1.3"/>
</g>
<g>
	<circle class="st4" cx="504.6" cy="381.2" r="2.6"/>
	<circle class="st5" cx="504.6" cy="381.2" r="2.6"/>
</g>
<g>
	<circle class="st4" cx="584.2" cy="431.8" r="2.6"/>
	<circle class="st5" cx="584.2" cy="431.8" r="2.6"/>
</g>
<image style="overflow:visible;enable-background:new    ;" width="5" height="5" xlink:href="2AEE0BCFC9B075D1.png"  transform="matrix(0.8 0 0 0.8 1009.2585 472.2006)">
</image>
<image style="overflow:visible;enable-background:new    ;" width="5" height="5" xlink:href="2AEE0BCFC9B075D3.png"  transform="matrix(0.8 0 0 0.8 750.8803 445.06)">
</image>
<g>
	<circle class="st4" cx="1113.6" cy="71.9" r="1.3"/>
	<circle class="st5" cx="1113.6" cy="71.9" r="1.3"/>
</g>
<g>
	<circle class="st4" cx="1160.2" cy="114.5" r="2.6"/>
	<circle class="st5" cx="1160.2" cy="114.5" r="2.6"/>
</g>
<g>
	<circle class="st4" cx="1017.3" cy="65.4" r="1.3"/>
	<circle class="st5" cx="1017.3" cy="65.4" r="1.3"/>
</g>
<g>
	<circle class="st4" cx="1142.1" cy="89" r="2.6"/>
	<circle class="st5" cx="1142.1" cy="89" r="2.6"/>
</g>
<g>
	<circle class="st4" cx="1064.7" cy="142.8" r="2.6"/>
	<circle class="st5" cx="1064.7" cy="142.8" r="2.6"/>
</g>
<g>
	<circle class="st4" cx="773" cy="342.8" r="1.3"/>
	<circle class="st5" cx="773" cy="342.8" r="1.3"/>
</g>
<g>
	<circle class="st4" cx="922.8" cy="334.3" r="1.3"/>
	<circle class="st5" cx="922.8" cy="334.3" r="1.3"/>
</g>
<g>
	<circle class="st4" cx="635.5" cy="390.7" r="1.3"/>
	<circle class="st5" cx="635.5" cy="390.7" r="1.3"/>
</g>
<circle class="st3" cx="1166.1" cy="90.9" r="1.3"/>
<circle class="st3" cx="970.9" cy="250.6" r="1.3"/>
<circle class="st3" cx="996.1" cy="220.9" r="1.3"/>
<circle class="st3" cx="1006.1" cy="220.9" r="1.3"/>
<circle class="st3" cx="1001.1" cy="200.9" r="1.3"/>
<circle class="st3" cx="1016.1" cy="189.9" r="1.3"/>
<circle class="st3" cx="870.9" cy="500.6" r="2.6"/>
<circle class="st3" cx="1012.2" cy="107.6" r="2.6"/>
<g>
	<circle class="st4" cx="1058.1" cy="68.2" r="1.3"/>
	<circle class="st5" cx="1058.1" cy="68.2" r="1.3"/>
</g>
<g>
	<circle class="st4" cx="1042.4" cy="90.7" r="2.6"/>
	<circle class="st5" cx="1042.4" cy="90.7" r="2.6"/>
</g>
<circle class="st3" cx="760.8" cy="257.9" r="2.6"/>
<circle class="st3" cx="1163.2" cy="232.7" r="1.3"/>
<circle class="st3" cx="1034.1" cy="226.7" r="1.3"/>
<circle class="st3" cx="867.8" cy="230.9" r="1.3"/>
<circle class="st3" cx="852" cy="179.1" r="1.3"/>
<circle class="st3" cx="723.8" cy="201.4" r="1.3"/>
<g>
	<circle class="st4" cx="915.7" cy="224.3" r="2.6"/>
	<circle class="st5" cx="915.7" cy="224.3" r="2.6"/>
</g>
<circle class="st3" cx="959.6" cy="192.4" r="2.6"/>
<g>
	<circle class="st4" cx="824.6" cy="250.1" r="1.3"/>
	<circle class="st5" cx="824.6" cy="250.1" r="1.3"/>
</g>
<g>
	<circle class="st4" cx="900.9" cy="199.6" r="1.3"/>
	<circle class="st5" cx="900.9" cy="199.6" r="1.3"/>
</g>
<g>
	<circle class="st4" cx="751.2" cy="207.8" r="1.3"/>
	<circle class="st5" cx="751.2" cy="207.8" r="1.3"/>
</g>
<g>
	<circle class="st4" cx="1102.2" cy="223" r="1.3"/>
	<circle class="st5" cx="1102.2" cy="223" r="1.3"/>
</g>
<circle class="st3" cx="442.7" cy="261.5" r="1.3"/>
<circle class="st3" cx="571.8" cy="267.5" r="1.3"/>
<circle class="st3" cx="524.9" cy="225.3" r="2.6"/>
<circle class="st3" cx="703.2" cy="240.9" r="2.6"/>
<circle class="st3" cx="620.1" cy="196.2" r="2.6"/>
<g>
	<circle class="st4" cx="364.6" cy="237" r="2.6"/>
	<circle class="st5" cx="364.6" cy="237" r="2.6"/>
</g>
<circle class="st3" cx="408.5" cy="205.1" r="2.6"/>
<g>
	<circle class="st4" cx="788.7" cy="201.1" r="2.6"/>
	<circle class="st5" cx="788.7" cy="201.1" r="2.6"/>
</g>
<g>
	<circle class="st4" cx="741.2" cy="206.4" r="1.3"/>
	<circle class="st5" cx="741.2" cy="206.4" r="1.3"/>
</g>
<g>
	<circle class="st4" cx="589.9" cy="218.8" r="2.6"/>
	<circle class="st5" cx="589.9" cy="218.8" r="2.6"/>
</g>
<g>
	<circle class="st4" cx="349.8" cy="212.3" r="1.3"/>
	<circle class="st5" cx="349.8" cy="212.3" r="1.3"/>
</g>
<g>
	<circle class="st4" cx="478.1" cy="202.4" r="1.3"/>
	<circle class="st5" cx="478.1" cy="202.4" r="1.3"/>
</g>
<g>
	<circle class="st4" cx="673.2" cy="275.6" r="2.6"/>
	<circle class="st5" cx="673.2" cy="275.6" r="2.6"/>
</g>
<g>
	<circle class="st4" cx="503.7" cy="271.2" r="1.3"/>
	<circle class="st5" cx="503.7" cy="271.2" r="1.3"/>
</g>
<circle class="st3" cx="809.3" cy="264.2" r="1.3"/>
<circle class="st3" cx="551.8" cy="187.5" r="1.3"/>
<circle class="st3" cx="741.8" cy="197.5" r="1.3"/>
<circle class="st3" cx="731.8" cy="197.5" r="1.3"/>
<circle class="st3" cx="736.8" cy="217.5" r="1.3"/>
<circle class="st3" cx="721.8" cy="228.5" r="1.3"/>
<circle class="st3" cx="314.7" cy="473" r="2.6"/>
<circle class="st3" cx="14.6" cy="415.2" r="1.3"/>
<circle class="st3" cx="165.8" cy="401.4" r="2.6"/>
<circle class="st3" cx="217.8" cy="495.9" r="2.6"/>
<circle class="st3" cx="547.8" cy="463.9" r="1.3"/>
<circle class="st3" cx="386.8" cy="509.9" r="1.3"/>
<circle class="st3" cx="676.9" cy="469.9" r="1.3"/>
<circle class="st3" cx="630" cy="427.8" r="2.6"/>
<circle class="st3" cx="808.2" cy="443.4" r="2.6"/>
<circle class="st3" cx="725.2" cy="398.6" r="2.6"/>
<circle class="st3" cx="421.7" cy="446" r="1.3"/>
<circle class="st3" cx="405.9" cy="394.2" r="1.3"/>
<circle class="st3" cx="277.7" cy="416.5" r="1.3"/>
<g>
	<circle class="st4" cx="469.6" cy="439.4" r="2.6"/>
	<circle class="st5" cx="469.6" cy="439.4" r="2.6"/>
</g>
<circle class="st3" cx="751" cy="559.2" r="1.3"/>
<circle class="st3" cx="610" cy="499" r="2.6"/>
<circle class="st3" cx="513.5" cy="407.5" r="2.6"/>
<g>
	<circle class="st4" cx="119.8" cy="440.8" r="1.3"/>
	<circle class="st5" cx="119.8" cy="440.8" r="1.3"/>
</g>
<g>
	<circle class="st4" cx="378.5" cy="465.2" r="1.3"/>
	<circle class="st5" cx="378.5" cy="465.2" r="1.3"/>
</g>
<circle class="st3" cx="88.6" cy="505.9" r="1.3"/>
<circle class="st3" cx="37.7" cy="539" r="2.6"/>
<circle class="st3" cx="117.2" cy="522.6" r="2.6"/>
<circle class="st3" cx="40.4" cy="577.2" r="2.6"/>
<circle class="st3" cx="359.6" cy="570" r="1.3"/>
<circle class="st3" cx="209.9" cy="580" r="1.3"/>
<circle class="st3" cx="496.6" cy="520.6" r="1.3"/>
<g>
	<circle class="st4" cx="846.2" cy="408.9" r="1.3"/>
	<circle class="st5" cx="846.2" cy="408.9" r="1.3"/>
</g>
<g>
	<circle class="st4" cx="695" cy="421.2" r="2.6"/>
	<circle class="st5" cx="695" cy="421.2" r="2.6"/>
</g>
<g>
	<circle class="st4" cx="600" cy="557.6" r="2.6"/>
	<circle class="st5" cx="600" cy="557.6" r="2.6"/>
</g>
<g>
	<circle class="st4" cx="281.1" cy="540.3" r="1.3"/>
	<circle class="st5" cx="281.1" cy="540.3" r="1.3"/>
</g>
<g>
	<circle class="st4" cx="431.1" cy="541.8" r="1.3"/>
	<circle class="st5" cx="431.1" cy="541.8" r="1.3"/>
</g>
<g>
	<circle class="st4" cx="140.7" cy="579" r="1.3"/>
	<circle class="st5" cx="140.7" cy="579" r="1.3"/>
</g>
<g>
	<circle class="st4" cx="121.2" cy="568.6" r="2.6"/>
	<circle class="st5" cx="121.2" cy="568.6" r="2.6"/>
</g>
<g>
	<circle class="st4" cx="135.6" cy="418.2" r="2.6"/>
	<circle class="st5" cx="135.6" cy="418.2" r="2.6"/>
</g>
<g>
	<circle class="st4" cx="454.8" cy="414.8" r="1.3"/>
	<circle class="st5" cx="454.8" cy="414.8" r="1.3"/>
</g>
<g>
	<circle class="st4" cx="305.1" cy="422.9" r="1.3"/>
	<circle class="st5" cx="305.1" cy="422.9" r="1.3"/>
</g>
<g>
	<circle class="st4" cx="583.2" cy="404.9" r="1.3"/>
	<circle class="st5" cx="583.2" cy="404.9" r="1.3"/>
</g>
<image style="overflow:visible;enable-background:new    ;" width="9" height="9" xlink:href="2AEE0BCFC9B075D0.png"  transform="matrix(0.8889 0 0 0.8889 343.9105 607.7484)">
</image>
<g>
	<circle class="st4" cx="67.5" cy="488.9" r="1.3"/>
	<circle class="st5" cx="67.5" cy="488.9" r="1.3"/>
</g>
<g>
	<circle class="st4" cx="190.5" cy="520.5" r="2.6"/>
	<circle class="st5" cx="190.5" cy="520.5" r="2.6"/>
</g>
<g>
	<circle class="st4" cx="270.1" cy="571.1" r="2.6"/>
	<circle class="st5" cx="270.1" cy="571.1" r="2.6"/>
</g>
<image style="overflow:visible;enable-background:new    ;" width="5" height="5" xlink:href="2AEE0BCFC9B075D1.png"  transform="matrix(0.8 0 0 0.8 695.2085 611.5506)">
</image>
<image style="overflow:visible;enable-background:new    ;" width="5" height="5" xlink:href="2AEE0BCFC9B075D3.png"  transform="matrix(0.8 0 0 0.8 436.8303 584.41)">
</image>
<g>
	<circle class="st4" cx="729.4" cy="549" r="1.3"/>
	<circle class="st5" cx="729.4" cy="549" r="1.3"/>
</g>
<g>
	<circle class="st4" cx="682.8" cy="506.4" r="2.6"/>
	<circle class="st5" cx="682.8" cy="506.4" r="2.6"/>
</g>
<g>
	<circle class="st4" cx="825.7" cy="555.5" r="1.3"/>
	<circle class="st5" cx="825.7" cy="555.5" r="1.3"/>
</g>
<g>
	<circle class="st4" cx="700.9" cy="531.8" r="2.6"/>
	<circle class="st5" cx="700.9" cy="531.8" r="2.6"/>
</g>
<g>
	<circle class="st4" cx="778.2" cy="478" r="2.6"/>
	<circle class="st5" cx="778.2" cy="478" r="2.6"/>
</g>
<g>
	<circle class="st4" cx="458.9" cy="482.1" r="1.3"/>
	<circle class="st5" cx="458.9" cy="482.1" r="1.3"/>
</g>
<g>
	<circle class="st4" cx="608.8" cy="473.6" r="1.3"/>
	<circle class="st5" cx="608.8" cy="473.6" r="1.3"/>
</g>
<g>
	<circle class="st4" cx="321.4" cy="530" r="1.3"/>
	<circle class="st5" cx="321.4" cy="530" r="1.3"/>
</g>
<circle class="st3" cx="676.9" cy="530" r="1.3"/>
<circle class="st3" cx="656.9" cy="390" r="1.3"/>
<circle class="st3" cx="846.9" cy="400" r="1.3"/>
<circle class="st3" cx="836.9" cy="400" r="1.3"/>
<circle class="st3" cx="841.9" cy="419.9" r="1.3"/>
<circle class="st3" cx="826.9" cy="430.9" r="1.3"/>
<circle class="st3" cx="556.9" cy="640" r="2.6"/>
<circle class="st3" cx="830.8" cy="513.2" r="2.6"/>
<g>
	<circle class="st4" cx="784.9" cy="552.6" r="1.3"/>
	<circle class="st5" cx="784.9" cy="552.6" r="1.3"/>
</g>
<g>
	<circle class="st4" cx="800.5" cy="530.1" r="2.6"/>
	<circle class="st5" cx="800.5" cy="530.1" r="2.6"/>
</g>
<circle class="st3" cx="446.8" cy="397.2" r="2.6"/>
<circle class="st3" cx="679.8" cy="388.1" r="1.3"/>
<circle class="st3" cx="808.9" cy="394.1" r="1.3"/>
<circle class="st3" cx="762" cy="351.9" r="2.6"/>
<circle class="st3" cx="857.2" cy="322.9" r="2.6"/>
<circle class="st3" cx="553.8" cy="370.2" r="1.3"/>
<circle class="st3" cx="538" cy="318.4" r="1.3"/>
<circle class="st3" cx="409.8" cy="340.8" r="1.3"/>
<g>
	<circle class="st4" cx="601.7" cy="363.6" r="2.6"/>
	<circle class="st5" cx="601.7" cy="363.6" r="2.6"/>
</g>
<circle class="st3" cx="645.5" cy="331.8" r="2.6"/>
<g>
	<circle class="st4" cx="510.6" cy="389.4" r="1.3"/>
	<circle class="st5" cx="510.6" cy="389.4" r="1.3"/>
</g>
<g>
	<circle class="st4" cx="827" cy="345.4" r="2.6"/>
	<circle class="st5" cx="827" cy="345.4" r="2.6"/>
</g>
<g>
	<circle class="st4" cx="586.9" cy="338.9" r="1.3"/>
	<circle class="st5" cx="586.9" cy="338.9" r="1.3"/>
</g>
<g>
	<circle class="st4" cx="437.2" cy="347.1" r="1.3"/>
	<circle class="st5" cx="437.2" cy="347.1" r="1.3"/>
</g>
<g>
	<circle class="st4" cx="715.2" cy="329" r="1.3"/>
	<circle class="st5" cx="715.2" cy="329" r="1.3"/>
</g>
<g>
	<circle class="st4" cx="740.8" cy="397.9" r="1.3"/>
	<circle class="st5" cx="740.8" cy="397.9" r="1.3"/>
</g>
<circle class="st3" cx="788.9" cy="314.1" r="1.3"/>
<circle class="st3" cx="128.6" cy="400.9" r="1.3"/>
<circle class="st3" cx="257.8" cy="406.9" r="1.3"/>
<circle class="st3" cx="210.9" cy="364.6" r="2.6"/>
<circle class="st3" cx="389.1" cy="380.2" r="2.6"/>
<circle class="st3" cx="306.1" cy="335.5" r="2.6"/>
<g>
	<circle class="st4" cx="50.6" cy="376.4" r="2.6"/>
	<circle class="st5" cx="50.6" cy="376.4" r="2.6"/>
</g>
<circle class="st3" cx="94.4" cy="344.5" r="2.6"/>
<g>
	<circle class="st4" cx="474.6" cy="340.5" r="2.6"/>
	<circle class="st5" cx="474.6" cy="340.5" r="2.6"/>
</g>
<g>
	<circle class="st4" cx="427.1" cy="345.8" r="1.3"/>
	<circle class="st5" cx="427.1" cy="345.8" r="1.3"/>
</g>
<g>
	<circle class="st4" cx="275.9" cy="358.1" r="2.6"/>
	<circle class="st5" cx="275.9" cy="358.1" r="2.6"/>
</g>
<g>
	<circle class="st4" cx="35.8" cy="351.6" r="1.3"/>
	<circle class="st5" cx="35.8" cy="351.6" r="1.3"/>
</g>
<g>
	<circle class="st4" cx="164.1" cy="341.8" r="1.3"/>
	<circle class="st5" cx="164.1" cy="341.8" r="1.3"/>
</g>
<g>
	<circle class="st4" cx="359.1" cy="415" r="2.6"/>
	<circle class="st5" cx="359.1" cy="415" r="2.6"/>
</g>
<g>
	<circle class="st4" cx="189.6" cy="410.5" r="1.3"/>
	<circle class="st5" cx="189.6" cy="410.5" r="1.3"/>
</g>
<circle class="st3" cx="495.3" cy="403.5" r="1.3"/>
<circle class="st3" cx="237.8" cy="326.9" r="1.3"/>
<circle class="st3" cx="427.8" cy="336.9" r="1.3"/>
<circle class="st3" cx="417.8" cy="336.9" r="1.3"/>
<circle class="st3" cx="422.8" cy="356.9" r="1.3"/>
<circle class="st3" cx="407.8" cy="367.9" r="1.3"/>
</svg>
