<?xml version="1.0" encoding="utf-8"?>
<!-- Generator: Adobe Illustrator 24.1.3, SVG Export Plug-In . SVG Version: 6.00 Build 0)  -->
<svg version="1.1" id="Layer_1" xmlns="http://www.w3.org/2000/svg" xmlns:xlink="http://www.w3.org/1999/xlink" x="0px" y="0px"
	 viewBox="0 0 1199.8 501" style="enable-background:new 0 0 1199.8 501;" xml:space="preserve">
<style type="text/css">
	.st0{opacity:0.42;filter:url(#blurDos);}
	.st1{fill:#F6EB64;}
	.st2{opacity:0.25;filter:url(#blurDos);}
	.st3{fill:#E9F1F4;}
	.st4{opacity:0.52;filter:url(#blurDos);}
	.st5{fill:#FFF1F4;}
</style>
<filter  id="blurDos">
	<feGaussianBlur  stdDeviation="10"></feGaussianBlur>
</filter>
<g class="st0">
	<circle class="st1" cx="599.9" cy="264.5" r="86.1"/>
</g>
<circle class="st1" cx="599.9" cy="264.5" r="56.5"/>
<g class="st2">
	<path class="st3" d="M493.9,177.1c0-5.6-18.8-10.7-50.2-14.7c0.1-0.3,0.1-0.7,0.1-1c0-11.4-45.2-20.6-101-20.6
		c-41.8,0-77.7,5.2-93,12.6c-8.4,0-16.7,0.1-24.9,0.2c-6.1-4.3-17.1-7.1-29.6-7.1c-14.2,0-26.4,3.7-31.8,8.9
		c-13.4,0.6-26.2,1.4-38.2,2.2c-9.1-2.2-20.9-3.5-33.7-3.5c-28.9,0-52.4,6.6-52.5,14.8c-9.2,2.6-14.2,5.3-14.2,8.2
		c0,6.8,28.3,13,73.5,17.3c8.9,5.1,25.7,8.6,45,8.6c12.1,0,23.2-1.4,32.1-3.7c15.8,0.6,32.5,1.1,49.7,1.3c18.2,3.7,43.3,6,71,6
		c34.9,0,65.6-3.6,83.7-9.1C448.3,193.4,493.9,185.8,493.9,177.1z"/>
</g>
<g class="st2">
	<path class="st3" d="M1244,225.1c0-5.6-18.8-10.7-50.2-14.7c0.1-0.3,0.1-0.7,0.1-1c0-11.4-45.2-20.6-101-20.6
		c-41.8,0-77.7,5.2-93,12.6c-8.4,0-16.7,0.1-24.9,0.2c-6.1-4.3-17.1-7.1-29.6-7.1c-14.2,0-26.4,3.7-31.8,8.9
		c-13.4,0.6-26.2,1.4-38.2,2.2c-9.1-2.2-20.9-3.5-33.7-3.5c-28.9,0-52.4,6.6-52.5,14.8c-9.2,2.6-14.2,5.3-14.2,8.2
		c0,6.8,28.3,13,73.5,17.3c8.9,5.1,25.7,8.6,45,8.6c12.1,0,23.2-1.4,32.1-3.7c15.8,0.6,32.5,1.1,49.7,1.3c18.2,3.7,43.3,6,71,6
		c34.9,0,65.6-3.6,83.7-9.1C1198.4,241.4,1244,233.8,1244,225.1z"/>
</g>
<g class="st2">
	<path class="st3" d="M267,250.6c0,5.6,13.3,10.7,35.6,14.9c-0.1,0.3-0.1,0.7-0.1,1c-0.1,11.4,32,20.8,71.6,21
		c29.7,0.1,55.2-4.9,66.1-12.3c6,0,11.9-0.1,17.7-0.2c4.3,4.3,12.1,7.2,21,7.2c10.1,0,18.8-3.6,22.6-8.8c9.5-0.6,18.6-1.3,27.1-2.1
		c6.5,2.2,14.8,3.5,23.9,3.6c20.5,0.1,37.2-6.4,37.4-14.6c6.6-2.5,10.1-5.3,10.1-8.1c0-6.8-20-13.1-52.1-17.6
		c-6.3-5.2-18.2-8.7-31.9-8.7c-8.6,0-16.5,1.3-22.8,3.5c-11.2-0.7-23.1-1.2-35.3-1.5c-12.9-3.7-30.7-6.1-50.4-6.2
		c-24.8-0.1-46.6,3.4-59.5,8.8C299.4,234.5,267,241.9,267,250.6z"/>
</g>
<g class="st2">
	<path class="st3" d="M265.8,250.6c0,5.6,13.3,10.7,35.6,14.9c-0.1,0.3-0.1,0.7-0.1,1c-0.1,11.4,32,20.8,71.6,21
		c29.7,0.1,55.2-4.9,66.1-12.3c6,0,11.9-0.1,17.7-0.2c4.3,4.3,12.1,7.2,21,7.2c10.1,0,18.8-3.6,22.6-8.8c9.5-0.6,18.6-1.3,27.1-2.1
		c6.5,2.2,14.8,3.5,23.9,3.6c20.5,0.1,37.2-6.4,37.4-14.6c6.6-2.5,10.1-5.3,10.1-8.1c0-6.8-20-13.1-52.1-17.6
		c-6.3-5.2-18.2-8.7-31.9-8.7c-8.6,0-16.5,1.3-22.8,3.5c-11.2-0.7-23.1-1.2-35.3-1.5c-12.9-3.7-30.7-6.1-50.4-6.2
		c-24.8-0.1-46.6,3.4-59.5,8.8C298.2,234.5,265.8,241.9,265.8,250.6z"/>
</g>
<g class="st2">
	<path class="st3" d="M411.3,278.9c0,5.6,13.3,10.7,35.6,14.9c-0.1,0.3-0.1,0.7-0.1,1c-0.1,11.4,32,20.8,71.6,21
		c29.7,0.1,55.2-4.9,66.1-12.3c6,0,11.9-0.1,17.7-0.2c4.3,4.3,12.1,7.2,21,7.2c10.1,0,18.8-3.6,22.6-8.8c9.5-0.6,18.6-1.3,27.1-2.1
		c6.5,2.2,14.8,3.5,23.9,3.6c20.5,0.1,37.2-6.4,37.4-14.6c6.6-2.5,10.1-5.3,10.1-8.1c0-6.8-20-13.1-52.1-17.6
		c-6.3-5.2-18.2-8.7-31.9-8.7c-8.6,0-16.5,1.3-22.8,3.5c-11.2-0.7-23.1-1.2-35.3-1.5c-12.9-3.7-30.7-6.1-50.4-6.2
		c-24.8-0.1-46.6,3.4-59.5,8.8C443.7,262.8,411.3,270.2,411.3,278.9z"/>
</g>
<g class="st4">
	<path class="st5" d="M489.9,250.6c0,5.6,13.3,10.7,35.6,14.9c-0.1,0.3-0.1,0.7-0.1,1c-0.1,11.4,32,20.8,71.6,21
		c29.7,0.1,55.2-4.9,66.1-12.3c6,0,11.9-0.1,17.7-0.2c4.3,4.3,12.1,7.2,21,7.2c10.1,0,18.8-3.6,22.6-8.8c9.5-0.6,18.6-1.3,27.1-2.1
		c6.5,2.2,14.8,3.5,23.9,3.6c20.5,0.1,37.2-6.4,37.4-14.6c6.6-2.5,10.1-5.3,10.1-8.1c0-6.8-20-13.1-52.1-17.6
		c-6.3-5.2-18.2-8.7-31.9-8.7c-8.6,0-16.5,1.3-22.8,3.5c-11.2-0.7-23.1-1.2-35.3-1.5c-12.9-3.7-30.7-6.1-50.4-6.2
		c-24.8-0.1-46.6,3.4-59.5,8.8C522.3,234.5,489.9,241.9,489.9,250.6z"/>
</g>
<g class="st2">
	<path class="st3" d="M787.3,278.9c0,5.6,13.3,10.7,35.6,14.9c-0.1,0.3-0.1,0.7-0.1,1c-0.1,11.4,32,20.8,71.6,21
		c29.7,0.1,55.2-4.9,66.1-12.3c6,0,11.9-0.1,17.7-0.2c4.3,4.3,12.1,7.2,21,7.2c10.1,0,18.8-3.6,22.6-8.8c9.5-0.6,18.6-1.3,27.1-2.1
		c6.5,2.2,14.8,3.5,23.9,3.6c20.5,0.1,37.2-6.4,37.4-14.6c6.6-2.5,10.1-5.3,10.1-8.1c0-6.8-20-13.1-52.1-17.6
		c-6.3-5.2-18.2-8.7-31.9-8.7c-8.6,0-16.5,1.3-22.8,3.5c-11.2-0.7-23.1-1.2-35.3-1.5c-12.9-3.7-30.7-6.1-50.4-6.2
		c-24.8-0.1-46.6,3.4-59.5,8.8C819.7,262.8,787.3,270.2,787.3,278.9z"/>
</g>
<g class="st2">
	<path class="st3" d="M476.4,181.8c0-5.6-18.8-10.7-50.2-14.7c0.1-0.3,0.1-0.7,0.1-1c0-11.4-45.2-20.6-101-20.6
		c-41.8,0-77.7,5.2-93,12.6c-8.4,0-16.7,0.1-24.9,0.2c-6.1-4.3-17.1-7.1-29.6-7.1c-14.2,0-26.4,3.7-31.8,8.9
		c-13.4,0.6-26.2,1.4-38.2,2.2c-9.1-2.2-20.9-3.5-33.7-3.5c-28.9,0-52.4,6.6-52.5,14.8c-9.2,2.6-14.2,5.3-14.2,8.2
		c0,6.8,28.3,13,73.5,17.3c8.9,5.1,25.7,8.6,45,8.6c12.1,0,23.2-1.4,32.1-3.7c15.8,0.6,32.5,1.1,49.7,1.3c18.2,3.7,43.3,6,71,6
		c34.9,0,65.6-3.6,83.7-9.1C430.8,198.1,476.4,190.5,476.4,181.8z"/>
</g>
<g class="st2">
	<path class="st3" d="M453.4,313.4c0-5.6-18.8-10.7-50.2-14.7c0.1-0.3,0.1-0.7,0.1-1c0-11.4-45.2-20.6-101-20.6
		c-41.8,0-77.7,5.2-93,12.6c-8.4,0-16.7,0.1-24.9,0.2c-6.1-4.3-17.1-7.1-29.6-7.1c-14.2,0-26.4,3.7-31.8,8.9
		c-13.4,0.6-26.2,1.4-38.2,2.2c-9.1-2.2-20.9-3.5-33.7-3.5c-28.9,0-52.4,6.6-52.5,14.8c-9.2,2.6-14.2,5.3-14.2,8.2
		c0,6.8,28.3,13,73.5,17.3c8.9,5.1,25.7,8.6,45,8.6c12.1,0,23.2-1.4,32.1-3.7c15.8,0.6,32.5,1.1,49.7,1.3c18.2,3.7,43.3,6,71,6
		c34.9,0,65.6-3.6,83.7-9.1C407.8,329.7,453.4,322.1,453.4,313.4z"/>
</g>
<g class="st2">
	<path class="st3" d="M962.9,211.4c0-5.6-18.8-10.7-50.2-14.7c0.1-0.3,0.1-0.7,0.1-1c0-11.4-45.2-20.6-101-20.6
		c-41.8,0-77.7,5.2-93,12.6c-8.4,0-16.7,0.1-24.9,0.2c-6.1-4.3-17.1-7.1-29.6-7.1c-14.2,0-26.4,3.7-31.8,8.9
		c-13.4,0.6-26.2,1.4-38.2,2.2c-9.1-2.2-20.9-3.5-33.7-3.5c-28.9,0-52.4,6.6-52.5,14.8c-9.2,2.6-14.2,5.3-14.2,8.2
		c0,6.8,28.3,13,73.5,17.3c8.9,5.1,25.7,8.6,45,8.6c12.1,0,23.2-1.4,32.1-3.7c15.8,0.6,32.5,1.1,49.7,1.3c18.2,3.7,43.3,6,71,6
		c34.9,0,65.6-3.6,83.7-9.1C917.3,227.7,962.9,220.1,962.9,211.4z"/>
</g>
<g class="st2">
	<path class="st3" d="M1272.4,258c0-5.6-18.8-10.7-50.2-14.7c0.1-0.3,0.1-0.7,0.1-1c0-11.4-45.2-20.6-101-20.6
		c-41.8,0-77.7,5.2-93,12.6c-8.4,0-16.7,0.1-24.9,0.2c-6.1-4.3-17.1-7.1-29.6-7.1c-14.2,0-26.4,3.7-31.8,8.9
		c-13.4,0.6-26.2,1.4-38.2,2.2c-9.1-2.2-20.9-3.5-33.7-3.5c-28.9,0-52.4,6.6-52.5,14.8c-9.2,2.6-14.2,5.3-14.2,8.2
		c0,6.8,28.3,13,73.5,17.3c8.9,5.1,25.7,8.6,45,8.6c12.1,0,23.2-1.4,32.1-3.7c15.8,0.6,32.5,1.1,49.7,1.3c18.2,3.7,43.3,6,71,6
		c34.9,0,65.6-3.6,83.7-9.1C1226.8,274.3,1272.4,266.7,1272.4,258z"/>
</g>
</svg>
