<?xml version="1.0" encoding="utf-8"?>
<!-- Generator: Adobe Illustrator 24.1.3, SVG Export Plug-In . SVG Version: 6.00 Build 0)  -->
<svg version="1.1" id="Layer_1" xmlns="http://www.w3.org/2000/svg" xmlns:xlink="http://www.w3.org/1999/xlink" x="0px" y="0px"
	 viewBox="0 0 1199.8 501" style="enable-background:new 0 0 1199.8 501;" xml:space="preserve">
<style type="text/css">
	.st0{clip-path:url(#SVGID_2_);}
	.st1{fill:url(#SVGID_3_);}
	.st2{fill:url(#SVGID_4_);}
	.st3{fill:url(#SVGID_5_);}
	.st4{fill:url(#SVGID_6_);}
	.st5{fill:url(#SVGID_7_);}
	.st6{fill:url(#SVGID_8_);}
	.st7{fill:url(#SVGID_9_);}
	.st8{fill:url(#SVGID_10_);}
</style>
<g>
	<defs>
		<rect id="SVGID_1_" width="1199.8" height="501"/>
	</defs>
	<clipPath id="SVGID_2_">
		<use xlink:href="#SVGID_1_"  style="overflow:visible;"/>
	</clipPath>
	<g class="st0">
		<linearGradient id="SVGID_3_" gradientUnits="userSpaceOnUse" x1="531.7376" y1="279.834" x2="531.7376" y2="487.6738">
			<stop  offset="1.346983e-03" style="stop-color:#71B64A"/>
			<stop  offset="1" style="stop-color:#202045"/>
		</linearGradient>
		<path class="st1" d="M745.1,378.7c20.3,28.8-5.4,54.7-32.2,70c-52.9,30.3-120.5,39.4-181.1,38.9c-60.8-0.5-128.1-10.8-181.1-41.3
			c-26.1-15-52.8-40.4-32.2-68.5c20.5-28.1,60.2-47,92.1-62.8c37.3-18.4,78-34.8,121.3-35.2c43.3-0.4,84.1,15.5,121.3,34.1
			C685.3,330,724.8,350,745.1,378.7z"/>
	</g>
	<g class="st0">
		<linearGradient id="SVGID_4_" gradientUnits="userSpaceOnUse" x1="374.4515" y1="264.834" x2="374.4515" y2="472.6499">
			<stop  offset="0" style="stop-color:#77B54A"/>
			<stop  offset="1" style="stop-color:#668345"/>
		</linearGradient>
		<path class="st2" d="M945.9,454.5C923.4,493.2,515,458,470,457.3c-88.9-1.5-177.6-13.7-265.9-20.4c-89.7-6.8-179.8-9.1-270.1-7.2
			c-29.8,0.6-59.8,2.2-89.6,1c-12.6-0.5-35.6-0.7-41.3-10.5c-6.3-10.8,12.6-25.4,21.9-32.7c22.9-17.9,50.7-32.4,78.5-45.2
			c94.6-43.6,203.1-69,311.3-75.6c105.9-6.4,221.6,4.3,315.4,48C570.5,333.3,971.1,410.9,945.9,454.5z"/>
	</g>
	<g class="st0">
		<linearGradient id="SVGID_5_" gradientUnits="userSpaceOnUse" x1="-1102.4043" y1="575.1324" x2="593.9231" y2="575.1324">
			<stop  offset="0" style="stop-color:#A2B54A"/>
			<stop  offset="1" style="stop-color:#388045"/>
		</linearGradient>
		<path class="st3" d="M571,486.1c17.5,3.4,36.1,10.1,9.9,18.7c-47,15.4-99.6,19.2-148.3,26C204.9,563-23.6,590.5-251.8,620.2
			c-225,29.3-450.9,64.4-677.6,77.9c-48.3,2.9-105.7,10-152.9-4.5c-25.5-7.8-25.8-24.2-6.4-40.8c34.6-29.7,80.8-47.8,122.7-64.4
			c63.4-25.2,128.9-45.2,194.9-62.3c161.3-41.8,326.9-64.2,492.9-73.2c165.8-9,332.4-4.4,498.4,4.1C335.9,463,457,464.1,571,486.1z"
			/>
	</g>
	<g class="st0">
		<linearGradient id="SVGID_6_" gradientUnits="userSpaceOnUse" x1="961.9323" y1="340.6992" x2="1733.4879" y2="340.6992">
			<stop  offset="0" style="stop-color:#A2B54A"/>
			<stop  offset="1" style="stop-color:#388045"/>
		</linearGradient>
		<path class="st4" d="M1724,356.3c38.4,23.5-51.8,30.5-64.2,31.9c-103.6,11.6-208.1,18.5-312.1,27.7
			c-101.2,8.9-206.6,23.7-308.5,17c-39.2-2.6-98-15.2-70.1-58.7c29.4-45.7,93.9-77.1,148.2-96.9c71-25.8,148.6-34.6,225.1-28.7
			c76.9,6,152.1,25.6,224.5,48C1618.7,312.6,1679.4,329.1,1724,356.3z"/>
	</g>
	<g class="st0">
		<linearGradient id="SVGID_7_" gradientUnits="userSpaceOnUse" x1="1010.9417" y1="244.834" x2="1010.9417" y2="485.7428">
			<stop  offset="0" style="stop-color:#77B54A"/>
			<stop  offset="1" style="stop-color:#668345"/>
		</linearGradient>
		<path class="st5" d="M1582.3,464.7c-22.5,44.9-430.9,4.1-475.8,3.2c-88.9-1.8-177.6-15.9-265.9-23.6
			c-89.7-7.9-179.8-10.5-270.1-8.4c-29.8,0.7-59.8,2.5-89.6,1.1c-12.6-0.6-35.6-0.8-41.3-12.2c-6.3-12.5,12.6-29.5,21.9-37.9
			c22.9-20.8,50.7-37.6,78.5-52.4c94.6-50.6,203.1-80,311.3-87.6c105.9-7.5,221.6,5,315.4,55.6
			C1207,324.2,1607.6,414.2,1582.3,464.7z"/>
	</g>
	<g class="st0">
		<linearGradient id="SVGID_8_" gradientUnits="userSpaceOnUse" x1="604.2205" y1="376.1624" x2="604.2205" y2="489.4607">
			<stop  offset="0" style="stop-color:#2986B1"/>
			<stop  offset="0.3" style="stop-color:#248FA8"/>
			<stop  offset="0.5674" style="stop-color:#1E9C9D"/>
			<stop  offset="0.8652" style="stop-color:#0075A6"/>
		</linearGradient>
		<path class="st6" d="M1300.7,427c-419.6,9.8-839.2,52.6-1258.8,62.5c-40.2-1.3-91.9-2-129.1-17c-11.1-4.3-1.3-9.1,4.4-11.7
			c15.8-7.1,37.1-8.6,54.2-11.2c52.2-8,104.9-13.2,157.5-18.7c50.9-5.4,101.9-10.4,152.6-17.4c19.6-2.7,40.3-4.8,59.3-10.4
			c6.1-1.8,21.8-5.1,11.7-11.7c-30.4-12-67.6-11.6-100.2-15.1C531.9,385.2,1275.3,422.4,1300.7,427z"/>
	</g>
	<g class="st0">
		<linearGradient id="SVGID_9_" gradientUnits="userSpaceOnUse" x1="-397.0677" y1="383.6995" x2="374.4878" y2="383.6995">
			<stop  offset="0" style="stop-color:#A2B54A"/>
			<stop  offset="1" style="stop-color:#388045"/>
		</linearGradient>
		<path class="st7" d="M365,397.3c38.4,20.5-51.8,26.6-64.2,27.8c-103.6,10.1-208.1,16.1-312.1,24.2
			c-101.2,7.8-206.6,20.7-308.5,14.8c-39.2-2.3-98-13.2-70.1-51.2c29.4-39.9,93.9-67.3,148.2-84.5c71-22.5,148.6-30.2,225.1-25
			c76.9,5.2,152.1,22.3,224.5,41.9C259.7,359.2,320.4,373.5,365,397.3z"/>
	</g>
	<g class="st0">
		<linearGradient id="SVGID_10_" gradientUnits="userSpaceOnUse" x1="-182.4037" y1="586.4557" x2="1832.9237" y2="586.4557">
			<stop  offset="0" style="stop-color:#A2B54A"/>
			<stop  offset="1" style="stop-color:#388045"/>
		</linearGradient>
		<path class="st8" d="M1810,461.8c17.5,4.7,36.1,14.1,9.9,26.2c-47,21.6-99.6,26.9-148.3,36.5c-227.8,45-775.3,83.5-1003.5,125.2
			c-225,41.1-450.9,90.2-677.6,109.1c-48.3,4-105.7,14-152.9-6.3c-25.5-10.9-25.8-33.9-6.4-57.2c34.6-41.6,80.8-67,122.7-90.3
			c63.4-35.3,128.9-63.3,194.9-87.2c161.3-58.5,326.9-90,492.9-102.6c165.8-12.6,332.4-6.2,498.4,5.8
			C1255.9,429.3,1696,431,1810,461.8z"/>
	</g>
</g>
</svg>
