<?xml version="1.0" encoding="utf-8"?>
<!-- Generator: Adobe Illustrator 24.1.3, SVG Export Plug-In . SVG Version: 6.00 Build 0)  -->
<svg version="1.1" id="Layer_1" xmlns="http://www.w3.org/2000/svg" xmlns:xlink="http://www.w3.org/1999/xlink" x="0px" y="0px"
	 viewBox="0 0 2078.7 1077.2" style="enable-background:new 0 0 2078.7 1077.2;" xml:space="preserve">
<style type="text/css">
	.st0{opacity:8.000000e-02;}
	.st1{fill:#FFFBDD;}
	.st2{opacity:0.8;filter:url(#blurDos);}
	.st3{fill:#FFEE55;}
	.st4{opacity:0.5;fill:#F9B200;enable-background:new    ;}
	.st5{opacity:0.27;filter:url(#blurDos);}
</style>
<filter  id="blurDos">
	<feGaussianBlur  stdDeviation="9"></feGaussianBlur>
</filter>
<g class="st0">
	<polygon class="st1" points="1640.1,904.3 1640.1,914 2904.9,972.6 2904.9,857.5 	"/>
</g>
<g class="st0">
	<polygon class="st1" points="1681.3,897.5 1683.4,907.8 2915.4,709.9 2890,589.5 	"/>
</g>
<g class="st0">
	<polygon class="st1" points="1654.2,899.1 1658.8,909.6 2915.4,394.5 2860.5,269.4 	"/>
</g>
<g class="st0">
	<polygon class="st1" points="1661.8,930.3 1670,937.3 2567.7,-0.9 2470.5,-83.6 	"/>
</g>
<g class="st0">
	<polygon class="st1" points="1690.5,-83.6 1575.5,-83.6 1634,882.4 1643.7,882.4 	"/>
</g>
<g class="st0">
	<polygon class="st1" points="-133.7,839.1 -133.7,954.2 1679.7,895.6 1679.7,885.9 	"/>
</g>
<g class="st0">
	<polygon class="st1" points="-112.3,571.1 -148.8,691.4 1617.6,889.4 1620.6,879.1 	"/>
</g>
<g class="st0">
	<polygon class="st1" points="-70.1,251 -148.8,376.1 1652.9,891.2 1659.5,880.7 	"/>
</g>
<g class="st0">
	<polygon class="st1" points="489,-102 349.7,-19.3 1636.8,918.9 1648.6,911.9 	"/>
</g>
<g class="st2">
	<circle class="st3" cx="1642.6" cy="891.2" r="179.7"/>
</g>
<ellipse transform="matrix(0.7071 -0.7071 0.7071 0.7071 -149.0509 1422.5345)" class="st4" cx="1642.6" cy="891.2" rx="147.4" ry="147.4"/>
<g class="st5">
	<circle class="st3" cx="1642.6" cy="896.6" r="590.4"/>
</g>
</svg>
